<svg width="512" height="512" viewBox="0 0 512 512" fill="none" xmlns="http://www.w3.org/2000/svg" role="img" aria-labelledby="title desc">
  <title id="title">Business Card Image Generator Favicon</title>
  <desc id="desc">Compact square favicon for the business card generator app.</desc>
  <defs>
    <linearGradient id="bg" x1="64" y1="48" x2="448" y2="464" gradientUnits="userSpaceOnUse">
      <stop stop-color="#071423"/>
      <stop offset="0.55" stop-color="#0C2340"/>
      <stop offset="1" stop-color="#09101D"/>
    </linearGradient>
    <linearGradient id="panel" x1="114" y1="172" x2="322" y2="348" gradientUnits="userSpaceOnUse">
      <stop stop-color="#123253"/>
      <stop offset="1" stop-color="#1C5B8A"/>
    </linearGradient>
    <linearGradient id="accent" x1="150" y1="192" x2="370" y2="360" gradientUnits="userSpaceOnUse">
      <stop stop-color="#2FD7FF"/>
      <stop offset="0.55" stop-color="#67B6FF"/>
      <stop offset="1" stop-color="#F4C542"/>
    </linearGradient>
  </defs>

  <rect width="512" height="512" rx="96" fill="url(#bg)"/>
  <circle cx="120" cy="116" r="64" fill="#2FD7FF" fill-opacity="0.1"/>
  <circle cx="402" cy="100" r="82" fill="#F4C542" fill-opacity="0.08"/>

  <rect x="120" y="170" width="166" height="112" rx="22" transform="rotate(-8 120 170)" fill="#0F385F" fill-opacity="0.92"/>
  <rect x="146" y="186" width="166" height="112" rx="22" fill="url(#panel)" stroke="url(#accent)" stroke-width="4"/>
  <rect x="302" y="214" width="72" height="72" rx="18" fill="#123253" stroke="#2FD7FF" stroke-width="4"/>
  <circle cx="345" cy="236" r="8" fill="#B7E8FF"/>
  <path d="M327 266L344 248L358 259L373 241" stroke="#67B6FF" stroke-width="6" stroke-linecap="round" stroke-linejoin="round"/>

  <circle cx="208" cy="232" r="18" fill="#7EC8FF"/>
  <path d="M180 264C183 245 196 235 208 235C220 235 233 245 236 264" stroke="#7EC8FF" stroke-width="9" stroke-linecap="round"/>
  <rect x="248" y="230" width="58" height="10" rx="5" fill="#EAF3FB"/>
  <rect x="248" y="254" width="58" height="10" rx="5" fill="#EAF3FB"/>
  <rect x="248" y="278" width="34" height="9" rx="4.5" fill="#F4C542"/>

  <text x="256" y="392" text-anchor="middle" fill="#F7FBFF" font-family="Manrope, Segoe UI, Arial, sans-serif" font-size="70" font-weight="800" letter-spacing="-2">
    BC
  </text>
</svg>
